<svg width="159" height="159" viewBox="0 0 159 159" fill="none" xmlns="http://www.w3.org/2000/svg">
<path d="M106 13.25V39.75M53 13.25V39.75M19.875 66.25H139.125M33.125 26.5H125.875C133.193 26.5 139.125 32.4322 139.125 39.75V132.5C139.125 139.818 133.193 145.75 125.875 145.75H33.125C25.8072 145.75 19.875 139.818 19.875 132.5V39.75C19.875 32.4322 25.8072 26.5 33.125 26.5Z" stroke="#1E1E1E" stroke-width="4" stroke-linecap="round" stroke-linejoin="round"/>
<path d="M79.2201 133.2C94.809 133.2 107.446 120.563 107.446 104.974C107.446 89.3847 94.809 76.7474 79.2201 76.7474C63.6312 76.7474 50.9939 89.3847 50.9939 104.974C50.9939 120.563 63.6312 133.2 79.2201 133.2Z" fill="#E9EC14"/>
<path d="M67.9296 110.619C67.9296 110.619 72.1636 116.264 79.2201 116.264C86.2767 116.264 90.5106 110.619 90.5106 110.619" fill="#E9EC14"/>
<path d="M67.9296 110.619C67.9296 110.619 72.1636 116.264 79.2201 116.264C86.2767 116.264 90.5106 110.619 90.5106 110.619M70.7523 96.5057H70.7805M87.688 96.5057H87.7162M107.446 104.974C107.446 120.563 94.809 133.2 79.2201 133.2C63.6312 133.2 50.9939 120.563 50.9939 104.974C50.9939 89.3847 63.6312 76.7474 79.2201 76.7474C94.809 76.7474 107.446 89.3847 107.446 104.974Z" stroke="#1E1E1E" stroke-width="4" stroke-linecap="round" stroke-linejoin="round"/>
</svg>
